<svg viewBox="0 0 300 300" fill="none" xmlns="http://www.w3.org/2000/svg">
<path d="M267.911 131.257L266.684 126.05H153.508V173.95H221.129C214.108 207.289 181.53 224.837 154.919 224.837C135.557 224.837 115.147 216.693 101.638 203.602C94.5104 196.585 88.837 188.231 84.9425 179.018C81.048 169.805 79.0088 159.915 78.9417 149.913C78.9417 129.736 88.0093 109.554 101.203 96.2787C114.398 83.0031 134.324 75.5753 154.137 75.5753C176.828 75.5753 193.09 87.6238 199.171 93.1186L233.21 59.2591C223.225 50.4847 195.794 28.375 153.041 28.375C120.055 28.375 88.4273 41.0099 65.3077 64.0535C42.4922 86.7441 30.6826 119.556 30.6826 150C30.6826 180.444 41.8569 211.616 63.9666 234.486C87.5912 258.876 121.049 271.625 155.5 271.625C186.846 271.625 216.557 259.343 237.733 237.06C258.55 215.124 269.317 184.772 269.317 152.954C269.317 139.559 267.971 131.604 267.911 131.257Z" />
</svg>
